<svg t="1711972696311" class="icon" viewBox="0 0 1024 1024" version="1.1" xmlns="http://www.w3.org/2000/svg" p-id="6076" width="200" height="200"><path d="M618.588155 1013.814543a22.725801 22.725801 0 0 1-2.091962-45.325855c1.600409-0.160041 161.184-16.712837 211.848361-138.389611a22.748664 22.748664 0 0 1 41.999292 17.478747c-61.284215 147.203289-241.981767 165.493672-249.698023 166.156699-0.663026 0.045726-1.360347 0.08002-2.057668 0.08002z" fill="#CDC1AD" p-id="6077"></path><path d="M594.261946 888.216769a22.737232 22.737232 0 0 1-21.71983-16.244146l-88.251098-296.372794a22.737232 22.737232 0 0 1 43.588269-12.929015l88.193941 296.327068a22.725801 22.725801 0 0 1-21.811282 29.218887z" fill="#0E4F53" p-id="6078"></path><path d="M508.834426 628.973453a22.714369 22.714369 0 0 1-21.788419-16.255578l-12.974741-43.588269a22.737232 22.737232 0 0 1 15.318196-28.270074l20.33662-6.058689a22.748664 22.748664 0 0 1 28.281505 15.295333l12.963309 43.588269a22.760095 22.760095 0 0 1-15.306765 28.281505l-20.348051 6.058689a23.091609 23.091609 0 0 1-6.481654 0.948814zM735.463703 561.527665a22.714369 22.714369 0 0 1-21.788419-16.255578l-13.009035-43.565406a22.725801 22.725801 0 0 1 15.329627-28.270073l20.33662-6.047258a22.862979 22.862979 0 0 1 28.350094 15.318196l12.963309 43.565406a22.760095 22.760095 0 0 1-15.306765 28.281505l-20.336619 6.058689a23.171629 23.171629 0 0 1-6.538812 0.914519zM909.862505 509.685861a22.714369 22.714369 0 0 1-21.788419-16.255578l-13.031898-43.588269a22.737232 22.737232 0 0 1 15.318196-28.270074l20.33662-6.058689a22.737232 22.737232 0 0 1 28.270073 15.306764l12.97474 43.588269a22.760095 22.760095 0 0 1-15.318195 28.281505l-20.33662 6.05869a23.148766 23.148766 0 0 1-6.424497 0.937382zM282.193717 696.41924a22.737232 22.737232 0 0 1-21.776987-16.244146l-12.974741-43.576838a22.760095 22.760095 0 0 1 15.318196-28.281505l20.33662-6.047258a22.748664 22.748664 0 0 1 28.281504 15.27247l12.963309 43.588269a22.760095 22.760095 0 0 1-15.329627 28.281505l-20.33662 6.035826a22.680075 22.680075 0 0 1-6.481654 0.971677z" fill="#9B4537" p-id="6079"></path><path d="M268.418772 634.117623a22.771527 22.771527 0 0 1-22.005617-28.498703l118.315915-452.68698a22.72923 22.72923 0 1 1 43.97694 11.51151l-118.315915 452.68698a22.725801 22.725801 0 0 1-21.971323 16.987193z" fill="#CDC1AD" p-id="6080"></path><path d="M721.665895 499.237479a22.56576 22.56576 0 0 1-15.363922-5.978669L374.342953 188.70107a22.726944 22.726944 0 1 1 30.727843-33.494264L737.029817 459.78741a22.737232 22.737232 0 0 1-15.363922 39.484364z" fill="#CDC1AD" p-id="6081"></path><path d="M371.885183 195.331334a22.748664 22.748664 0 0 1-21.788419-16.255578L308.566163 39.600154a22.737232 22.737232 0 0 1 15.318196-28.270073l34.866042-10.379793a22.771527 22.771527 0 0 1 28.304368 15.295333l41.542033 139.464171a22.748664 22.748664 0 0 1-15.295333 28.270073l-34.866043 10.391224a22.862979 22.862979 0 0 1-6.550243 0.960245z" fill="#9B4537" p-id="6082"></path><path d="M495.642487 547.524091a22.760095 22.760095 0 0 1-21.71983-16.255578l-108.999251-366.10488a22.737232 22.737232 0 0 1 43.588269-12.963309l108.942094 366.10488a22.748664 22.748664 0 0 1-21.811282 29.218887z" fill="#CDC1AD" p-id="6083"></path><path d="M274.946153 698.591223a22.714369 22.714369 0 0 1-21.799851-16.255578l-12.963309-43.588269A22.737232 22.737232 0 0 1 255.512621 610.465871l20.336619-6.035826a22.79439 22.79439 0 0 1 28.258642 15.318196l12.963309 43.51968a22.748664 22.748664 0 0 1-15.306764 28.281504l-20.33662 6.05869a23.148766 23.148766 0 0 1-6.481654 0.983108z" fill="#9B4537" p-id="6084"></path><path d="M93.654162 695.607604a22.737232 22.737232 0 0 1-19.867928-33.780051L364.248948 138.916934a22.725801 22.725801 0 0 1 30.487782-9.065171l529.106487 279.031224a22.737232 22.737232 0 0 1-4.126768 41.90784L100.147248 694.670222a22.988725 22.988725 0 0 1-6.493086 0.937382z m299.505022-515.160069l-252.635915 454.733216 712.799089-212.088422z" fill="#0E4F53" p-id="6085"></path><path d="M616.301857 1024a22.737232 22.737232 0 0 1-21.79985-16.255578l-36.317842-122.031149a22.737232 22.737232 0 0 1 15.306765-28.270073l33.791482-10.059711a22.725801 22.725801 0 0 1 28.224348 15.318196l36.352136 122.019717a22.748664 22.748664 0 0 1-15.306764 28.281505l-33.76862 10.048279a22.748664 22.748664 0 0 1-6.481655 0.948814z" fill="#9B4537" p-id="6086"></path><path d="M884.850406 877.619778a68.211697 68.211697 0 1 1 68.211697-68.211697 68.303149 68.303149 0 0 1-68.211697 68.211697z m0-90.948929a22.737232 22.737232 0 1 0 22.725801 22.737232 22.760095 22.760095 0 0 0-22.725801-22.680075z" fill="#CDC1AD" p-id="6087"></path></svg>